<svg aria-hidden="true" style="position: absolute; width: 0; height: 0; overflow: hidden;" version="1.1" xmlns="http://www.w3.org/2000/svg" xmlns:xlink="http://www.w3.org/1999/xlink">
<defs>

<symbol id="icon-dropdown" viewBox="0 0 32 32">
<path fill="#484f58" style="fill: var(--color1, #484f58)" d="M27.061 13.060l-10 10c-0.139 0.14-0.305 0.251-0.487 0.326s-0.378 0.115-0.575 0.115c-0.197 0-0.393-0.039-0.575-0.115s-0.348-0.187-0.487-0.326l-10-10c-0.282-0.282-0.44-0.664-0.44-1.063s0.158-0.781 0.44-1.063c0.282-0.282 0.664-0.44 1.063-0.44s0.781 0.158 1.063 0.44l8.939 8.939 8.939-8.94c0.282-0.282 0.664-0.44 1.062-0.44s0.781 0.158 1.063 0.44 0.44 0.664 0.44 1.063c0 0.399-0.158 0.781-0.44 1.063l-0.003 0.001z"></path>
</symbol>

<symbol id="icon-flag" viewBox="0 0 32 32">
<path fill="#b22334" style="fill: var(--color2, #b22334)" d="M31.507 6.223c-0.616-1.059-1.749-1.778-3.062-1.778h-12.444v1.778h15.507zM0 22.223h32v1.778h-32v-1.778zM16 15.112h16v1.778h-16v-1.778zM16 11.556h16v1.778h-16v-1.778zM0 18.668h32v1.778h-32v-1.778zM3.556 27.556h24.889c1.313 0 2.446-0.719 3.062-1.778h-31.013c0.616 1.059 1.749 1.778 3.062 1.778zM16 8.001h16v1.778h-16v-1.778z"></path>
<path fill="#eee" style="fill: var(--color3, #eee)" d="M0.060 24.604c0.015 0.083 0.032 0.165 0.052 0.246 0.023 0.090 0.052 0.176 0.082 0.263 0.079 0.23 0.175 0.452 0.296 0.66l0.003 0.004 31.015-0.004c0.119-0.21 0.218-0.43 0.295-0.659 0.059-0.167 0.104-0.338 0.135-0.512 0.036-0.196 0.061-0.396 0.061-0.604h-32c0 0.207 0.025 0.407 0.060 0.604zM0 20.445h32v1.778h-32v-1.778zM0 16.889v1.778h32v-1.778h-32zM16 13.334h16v1.778h-16v-1.778zM16 9.778h16v1.778h-16v-1.778zM0.114 7.151c0.022-0.091 0.053-0.177 0.082-0.264-0.031 0.087-0.058 0.175-0.082 0.264zM16 8h16c0-0.207-0.025-0.408-0.061-0.604-0.031-0.174-0.077-0.345-0.136-0.512-0.077-0.229-0.176-0.451-0.296-0.661h-15.507v1.778z"></path>
<path fill="#3c3b6e" style="fill: var(--color4, #3c3b6e)" d="M16 4.445h-12.444c-0.943 0-1.847 0.375-2.514 1.041s-1.041 1.571-1.041 2.514v8.889h16v-12.444z"></path>
<path fill="#f0f6fc" style="fill: var(--color5, #f0f6fc)" d="M1.781 6.868l0.549 0.399-0.21 0.644 0.548-0.398 0.549 0.398-0.21-0.644 0.549-0.399h-0.679l-0.21-0.645-0.209 0.645h-0.679zM3.559 8.646l0.549 0.399-0.21 0.644 0.548-0.398 0.549 0.398-0.21-0.644 0.549-0.399h-0.679l-0.21-0.645-0.209 0.645h-0.679zM7.115 8.646l0.549 0.399-0.21 0.644 0.548-0.398 0.549 0.398-0.21-0.644 0.549-0.399h-0.679l-0.21-0.645-0.209 0.645h-0.679zM10.67 8.646l0.549 0.399-0.21 0.644 0.548-0.398 0.549 0.398-0.21-0.644 0.549-0.399h-0.679l-0.21-0.645-0.209 0.645h-0.679zM3.559 12.201l0.549 0.399-0.21 0.644 0.548-0.398 0.549 0.398-0.21-0.644 0.549-0.399h-0.679l-0.21-0.645-0.209 0.645h-0.679zM7.115 12.201l0.549 0.399-0.21 0.644 0.548-0.398 0.549 0.398-0.21-0.644 0.549-0.399h-0.679l-0.21-0.645-0.209 0.645h-0.679zM10.67 12.201l0.549 0.399-0.21 0.644 0.548-0.398 0.549 0.398-0.21-0.644 0.549-0.399h-0.679l-0.21-0.645-0.209 0.645h-0.679zM5.337 6.868l0.549 0.399-0.21 0.644 0.548-0.398 0.549 0.398-0.21-0.644 0.549-0.399h-0.679l-0.21-0.645-0.209 0.645h-0.679zM8.892 6.868l0.549 0.399-0.21 0.644 0.548-0.398 0.549 0.398-0.21-0.644 0.549-0.399h-0.679l-0.21-0.645-0.209 0.645h-0.679zM12.448 6.868l0.549 0.399-0.21 0.644 0.548-0.398 0.549 0.398-0.21-0.644 0.549-0.399h-0.679l-0.21-0.645-0.209 0.645h-0.679zM1.781 10.424l0.549 0.399-0.21 0.644 0.548-0.398 0.549 0.398-0.21-0.644 0.549-0.399h-0.679l-0.21-0.645-0.209 0.645h-0.679zM5.676 11.467l0.548-0.398 0.549 0.398-0.21-0.644 0.549-0.399h-0.679l-0.21-0.645-0.209 0.645h-0.679l0.549 0.399-0.21 0.644zM8.892 10.424l0.549 0.399-0.21 0.644 0.548-0.398 0.549 0.398-0.21-0.644 0.549-0.399h-0.679l-0.21-0.645-0.209 0.645h-0.679zM12.448 10.424l0.549 0.399-0.21 0.644 0.548-0.398 0.549 0.398-0.21-0.644 0.549-0.399h-0.679l-0.21-0.645-0.209 0.645h-0.679zM1.781 13.979l0.549 0.399-0.21 0.644 0.548-0.398 0.549 0.398-0.21-0.644 0.549-0.399h-0.679l-0.21-0.645-0.209 0.645h-0.679zM5.676 15.023l0.548-0.398 0.549 0.398-0.21-0.644 0.549-0.399h-0.679l-0.21-0.645-0.209 0.645h-0.679l0.549 0.399-0.21 0.644zM8.892 13.979l0.549 0.399-0.21 0.644 0.548-0.398 0.549 0.398-0.21-0.644 0.549-0.399h-0.679l-0.21-0.645-0.209 0.645h-0.679zM12.448 13.979l0.549 0.399-0.21 0.644 0.548-0.398 0.549 0.398-0.21-0.644 0.549-0.399h-0.679l-0.21-0.645-0.209 0.645h-0.679z"></path>
</symbol>

<symbol id="icon-eye" viewBox="0 0 32 32">
<path fill="#484f58" style="fill: var(--color1, #484f58)" d="M30.914 15.595c-0.044-0.099-1.103-2.447-3.456-4.801-3.136-3.136-7.097-4.794-11.457-4.794s-8.321 1.657-11.457 4.794c-2.354 2.354-3.417 4.706-3.456 4.801-0.057 0.128-0.086 0.266-0.086 0.406s0.029 0.278 0.086 0.406c0.044 0.099 1.103 2.446 3.456 4.8 3.136 3.135 7.098 4.792 11.457 4.792s8.321-1.657 11.457-4.792c2.354-2.354 3.412-4.701 3.456-4.8 0.057-0.128 0.086-0.266 0.086-0.406s-0.029-0.278-0.086-0.406zM16 24c-3.848 0-7.209-1.399-9.991-4.156-1.142-1.135-2.113-2.43-2.884-3.844 0.771-1.414 1.742-2.709 2.884-3.844 2.783-2.758 6.144-4.156 9.991-4.156s7.209 1.399 9.991 4.156c1.144 1.135 2.117 2.43 2.89 3.844-0.901 1.683-4.828 8-12.881 8zM16 10c-1.187 0-2.347 0.352-3.333 1.011s-1.756 1.596-2.21 2.693c-0.454 1.096-0.573 2.303-0.341 3.467s0.803 2.233 1.642 3.072c0.839 0.839 1.908 1.411 3.072 1.642s2.37 0.113 3.467-0.341c1.096-0.454 2.033-1.223 2.693-2.21s1.011-2.147 1.011-3.333c-0.002-1.591-0.634-3.116-1.759-4.241s-2.65-1.758-4.241-1.759zM16 20c-0.791 0-1.564-0.235-2.222-0.674s-1.171-1.064-1.473-1.795c-0.303-0.731-0.382-1.535-0.228-2.311s0.535-1.489 1.095-2.048c0.559-0.559 1.272-0.94 2.048-1.095s1.58-0.075 2.311 0.228c0.731 0.303 1.356 0.815 1.795 1.473s0.674 1.431 0.674 2.222c0 1.061-0.421 2.078-1.172 2.828s-1.768 1.172-2.829 1.172z"></path>
</symbol>

<symbol id="icon-TRADE-INVEST-Backoffice" viewBox="0 0 568 32">
<path fill="#f0f6fc" style="fill: var(--color5, #f0f6fc)" d="M548.806 21.437c0.546 4.039 3.124 6.602 7.262 6.602 3.434 0 5.622-1.32 6.948-3.029l3.202 2.796c-1.952 2.33-5.232 4.194-10.15 4.194-7.73 0-11.946-5.126-11.946-12.039 0-7.146 4.684-12.039 11.554-12.039 6.872 0 11.322 4.738 11.322 12.039 0 0.544 0 0.932-0.156 1.476h-18.036zM555.676 11.806c-3.668 0-6.090 2.33-6.792 6.058h13.352c-0.626-3.806-3.046-6.058-6.56-6.058z"></path>
<path fill="#f0f6fc" style="fill: var(--color5, #f0f6fc)" d="M530.77 32c-6.948 0-11.712-4.893-11.712-12.039s4.764-12.039 11.712-12.039c5.076 0 9.136 2.563 10.464 6.99l-4.452 1.398c-1.014-2.718-3.122-4.427-6.012-4.427-4.294 0-6.948 3.184-6.948 8.078s2.654 8.078 6.948 8.078c2.812 0 4.998-1.709 6.012-4.427l4.452 1.398c-1.328 4.427-5.466 6.99-10.464 6.99z"></path>
<path fill="#f0f6fc" style="fill: var(--color5, #f0f6fc)" d="M508.128 5.047v-4.66h5.154v4.66h-5.154zM508.364 31.61v-23.301h4.684v23.301h-4.684z"></path>
<path fill="#f0f6fc" style="fill: var(--color5, #f0f6fc)" d="M499.384 3.961c-1.718 0-2.734 1.087-2.734 2.796v1.553h6.716v3.961h-6.716v19.34h-4.684v-19.34h-4.842v-3.961h4.842v-1.631c0-4.117 2.888-6.68 7.574-6.68 2.42 0 4.528 0.699 6.402 1.942l-2.186 3.495c-1.25-0.932-2.654-1.476-4.372-1.476z"></path>
<path fill="#f0f6fc" style="fill: var(--color5, #f0f6fc)" d="M483.454 3.961c-1.718 0-2.732 1.087-2.732 2.796v1.553h6.714v3.961h-6.714v19.34h-4.686v-19.34h-4.84v-3.961h4.84v-1.631c0-4.117 2.89-6.68 7.574-6.68 2.42 0 4.528 0.699 6.402 1.942l-2.186 3.495c-1.248-0.932-2.654-1.476-4.372-1.476z"></path>
<path fill="#f0f6fc" style="fill: var(--color5, #f0f6fc)" d="M457.064 32c-7.184 0-11.868-4.738-11.868-12.039 0-7.146 4.84-12.039 11.868-12.039 7.182 0 11.868 4.738 11.868 12.039 0 7.146-4.842 12.039-11.868 12.039zM457.064 28.039c4.294 0 7.104-3.184 7.104-8.078s-2.81-8.078-7.104-8.078c-4.294 0-7.106 3.184-7.106 8.078s2.812 8.078 7.106 8.078z"></path>
<path fill="#f0f6fc" style="fill: var(--color5, #f0f6fc)" d="M438.088 31.611l-7.886-10.796-3.358 3.184v7.612h-4.684v-31.068h4.684v18.175l10.542-10.408h5.934l-9.76 9.32 10.228 13.981h-5.7z"></path>
<path fill="#f0f6fc" style="fill: var(--color5, #f0f6fc)" d="M406.704 32c-6.948 0-11.712-4.893-11.712-12.039s4.764-12.039 11.712-12.039c5.076 0 9.136 2.563 10.462 6.99l-4.45 1.398c-1.014-2.718-3.122-4.427-6.012-4.427-4.294 0-6.948 3.184-6.948 8.078s2.654 8.078 6.948 8.078c2.812 0 4.998-1.709 6.012-4.427l4.45 1.398c-1.326 4.427-5.464 6.99-10.462 6.99z"></path>
<path fill="#f0f6fc" style="fill: var(--color5, #f0f6fc)" d="M391.008 27.573h0.858v4.039c-0.234 0.078-0.858 0.155-1.64 0.155-2.888 0-4.216-1.010-4.528-3.728-1.64 2.408-4.764 3.961-8.198 3.961-4.608 0-7.652-2.796-7.652-6.835 0-5.747 5.544-6.99 10.072-7.689 3.514-0.466 5.232-0.777 5.232-2.563 0-1.864-1.952-3.107-4.92-3.107-2.654 0-5.154 1.165-7.026 3.107l-2.89-3.029c2.732-2.563 6.090-3.961 10.15-3.961 5.622 0 9.058 2.874 9.058 7.689v10.486c0 1.010 0.468 1.476 1.484 1.476zM378.28 28.194c3.592 0 6.716-2.485 6.716-5.437v-3.029c-0.86 0.544-2.266 0.777-4.53 1.165-2.966 0.466-6.012 0.932-6.012 3.961 0 2.175 1.406 3.34 3.826 3.34z"></path>
<path fill="#f0f6fc" style="fill: var(--color5, #f0f6fc)" d="M361.806 16.544c2.732 1.243 4.294 3.728 4.294 6.99 0 4.971-3.592 8.078-9.526 8.078h-13.586v-29.515h13.352c5.622 0 9.214 3.029 9.214 7.845 0 2.951-1.328 5.282-3.748 6.602zM355.56 6.292h-7.808v8.155h7.808c3.434 0 5.152-1.32 5.152-4.117 0-2.718-1.718-4.039-5.152-4.039zM355.638 27.418c3.668 0 5.542-1.476 5.542-4.427s-1.874-4.427-5.542-4.427h-7.886v8.854h7.886z"></path>
<path fill="#f0f6fc" style="fill: var(--color5, #f0f6fc)" d="M325.266 2.098v6.058h-9.994v23.456h-6.716v-23.456h-9.994v-6.058h26.704z"></path>
<path fill="#f0f6fc" style="fill: var(--color5, #f0f6fc)" d="M285.134 31.998c-4.998 0-9.682-1.553-12.806-4.349l3.67-4.971c2.42 2.33 5.7 3.65 9.292 3.65 3.356 0 5.308-1.087 5.308-2.951s-2.264-2.33-5.778-3.34c-4.996-1.398-11.32-3.185-11.32-9.553 0-5.437 4.606-8.777 11.868-8.777 4.294 0 7.964 1.165 11.322 3.573l-3.592 4.971c-2.186-1.786-5.076-2.796-7.964-2.796-3.046 0-4.998 1.087-4.998 2.718 0 1.709 2.264 2.563 6.246 3.651 4.92 1.32 11.010 3.029 11.010 9.087 0 5.747-4.528 9.087-12.258 9.087z"></path>
<path fill="#f0f6fc" style="fill: var(--color5, #f0f6fc)" d="M254.524 25.787h15.304v5.825h-21.864v-29.515h21.472v5.825h-14.912v5.748h11.4v5.592h-11.4v6.524z"></path>
<path fill="#f0f6fc" style="fill: var(--color5, #f0f6fc)" d="M236.174 2.098h7.106l-10.62 29.515h-8.666l-10.618-29.515h7.182l7.808 23.223 7.808-23.223z"></path>
<path fill="#f0f6fc" style="fill: var(--color5, #f0f6fc)" d="M202.212 2.098h6.48v29.515h-6.246l-13.352-18.796v18.796h-6.481v-29.515h6.325l13.274 18.796v-18.796z"></path>
<path fill="#f0f6fc" style="fill: var(--color5, #f0f6fc)" d="M167.934 31.612v-29.515h6.715v29.515h-6.715z"></path>
<path fill="#f0f6fc" style="fill: var(--color5, #f0f6fc)" d="M134.594 25.787h15.304v5.825h-21.862v-29.515h21.472v5.825h-14.913v5.748h11.4v5.592h-11.4v6.524z"></path>
<path fill="#f0f6fc" style="fill: var(--color5, #f0f6fc)" d="M107.189 2.098c9.604 0 14.991 5.825 14.991 14.757 0 8.699-5.622 14.757-14.991 14.757h-11.556v-29.515h11.556zM107.032 26.020c5.388 0 8.277-3.417 8.277-9.165s-2.889-9.165-8.277-9.165h-4.685v18.33h4.685z"></path>
<path fill="#f0f6fc" style="fill: var(--color5, #f0f6fc)" d="M84.076 31.612l-2.108-5.825h-12.961l-2.108 5.825h-7.027l11.556-29.515h8.277l11.556 29.515h-7.183zM71.115 20.039h8.745l-4.373-12.117-4.372 12.117z"></path>
<path fill="#f0f6fc" style="fill: var(--color5, #f0f6fc)" d="M50.814 31.612l-6.324-10.874h-5.388v10.874h-6.637v-29.515h13.117c7.027 0 11.165 3.417 11.165 9.243 0 4.117-2.030 7.068-5.622 8.466l7.183 11.806h-7.496zM39.102 7.69v7.845h6.012c3.201 0 4.841-1.398 4.841-3.961s-1.64-3.883-4.841-3.883h-6.012z"></path>
<path fill="#f0f6fc" style="fill: var(--color5, #f0f6fc)" d="M27.703 2.098v6.058h-9.994v23.456h-6.715v-23.456h-9.994v-6.058h26.703z"></path>
</symbol>
</defs>
</svg>
